<?xml version="1.0" encoding="UTF-8" standalone="no"?>
<!DOCTYPE svg PUBLIC "-//W3C//DTD SVG 1.1//EN"
 "http://www.w3.org/Graphics/SVG/1.1/DTD/svg11.dtd">
<!-- Generated by graphviz version 2.43.0 (0)
 -->
<!-- Title: %3 Pages: 1 -->
<svg width="975pt" height="533pt"
 viewBox="0.00 0.00 975.00 533.00" xmlns="http://www.w3.org/2000/svg" xmlns:xlink="http://www.w3.org/1999/xlink">
<g id="graph0" class="graph" transform="scale(1 1) rotate(0) translate(4 529)">
<title>%3</title>
<polygon fill="white" stroke="transparent" points="-4,4 -4,-529 971,-529 971,4 -4,4"/>
<!-- START -->
<g id="node1" class="node">
<title>START</title>
<ellipse fill="black" stroke="black" cx="283" cy="-518" rx="7" ry="7"/>
</g>
<!-- NotSkipping.Idle -->
<g id="node3" class="node">
<title>NotSkipping.Idle</title>
<path fill="lightgrey" stroke="black" d="M379,-474C379,-474 187,-474 187,-474 181,-474 175,-468 175,-462 175,-462 175,-450 175,-450 175,-444 181,-438 187,-438 187,-438 379,-438 379,-438 385,-438 391,-444 391,-450 391,-450 391,-462 391,-462 391,-468 385,-474 379,-474"/>
<text text-anchor="middle" x="283" y="-452.2" font-family="Times,serif" font-size="16.00">NotSkipping</text>
</g>
<!-- START&#45;&gt;NotSkipping.Idle -->
<g id="edge1" class="edge">
<title>START&#45;&gt;NotSkipping.Idle</title>
<path fill="none" stroke="black" d="M283,-510.58C283,-504.23 283,-494.07 283,-484.3"/>
<polygon fill="black" stroke="black" points="286.5,-484.05 283,-474.05 279.5,-484.05 286.5,-484.05"/>
</g>
<!-- END -->
<g id="node2" class="node">
<title>END</title>
<ellipse fill="black" stroke="black" cx="196" cy="-120" rx="7" ry="7"/>
<ellipse fill="none" stroke="black" cx="196" cy="-120" rx="11" ry="11"/>
</g>
<!-- NeverSkipping.Idle -->
<g id="node4" class="node">
<title>NeverSkipping.Idle</title>
<path fill="lightgrey" stroke="black" d="M262,-387C262,-387 70,-387 70,-387 64,-387 58,-381 58,-375 58,-375 58,-363 58,-363 58,-357 64,-351 70,-351 70,-351 262,-351 262,-351 268,-351 274,-357 274,-363 274,-363 274,-375 274,-375 274,-381 268,-387 262,-387"/>
<text text-anchor="middle" x="166" y="-365.2" font-family="Times,serif" font-size="16.00">NeverSkipping</text>
</g>
<!-- NotSkipping.Idle&#45;&gt;NeverSkipping.Idle -->
<g id="edge2" class="edge">
<title>NotSkipping.Idle&#45;&gt;NeverSkipping.Idle</title>
<path fill="none" stroke="black" d="M216.5,-437.82C206.51,-433.18 196.91,-427.34 189,-420 182.25,-413.74 177.33,-405.11 173.81,-396.79"/>
<polygon fill="black" stroke="black" points="177.05,-395.47 170.3,-387.31 170.49,-397.9 177.05,-395.47"/>
<text text-anchor="middle" x="279.5" y="-408.8" font-family="Times,serif" font-size="14.00">[delimiter == undefined]</text>
</g>
<!-- NotSkippingPrefix.Idle -->
<g id="node5" class="node">
<title>NotSkippingPrefix.Idle</title>
<path fill="lightgrey" stroke="black" d="M496,-387C496,-387 304,-387 304,-387 298,-387 292,-381 292,-375 292,-375 292,-363 292,-363 292,-357 298,-351 304,-351 304,-351 496,-351 496,-351 502,-351 508,-357 508,-363 508,-363 508,-375 508,-375 508,-381 502,-387 496,-387"/>
<text text-anchor="middle" x="400" y="-365.2" font-family="Times,serif" font-size="16.00">NotSkippingPrefix</text>
</g>
<!-- NotSkipping.Idle&#45;&gt;NotSkippingPrefix.Idle -->
<g id="edge3" class="edge">
<title>NotSkipping.Idle&#45;&gt;NotSkippingPrefix.Idle</title>
<path fill="none" stroke="black" d="M340.77,-437.93C351.2,-433.2 361.45,-427.29 370,-420 377.58,-413.53 383.76,-404.65 388.51,-396.16"/>
<polygon fill="black" stroke="black" points="391.63,-397.74 393.08,-387.24 385.4,-394.54 391.63,-397.74"/>
<text text-anchor="middle" x="442.5" y="-408.8" font-family="Times,serif" font-size="14.00">[delimiter == &#39;/&#39;]</text>
</g>
<!-- NeverSkipping.Processing -->
<g id="node7" class="node">
<title>NeverSkipping.Processing</title>
<path fill="lightblue" stroke="black" d="M204,-270C204,-270 12,-270 12,-270 6,-270 0,-264 0,-258 0,-258 0,-246 0,-246 0,-240 6,-234 12,-234 12,-234 204,-234 204,-234 210,-234 216,-240 216,-246 216,-246 216,-258 216,-258 216,-264 210,-270 204,-270"/>
<text text-anchor="middle" x="108" y="-248.2" font-family="Times,serif" font-size="16.00">NeverSkipping</text>
</g>
<!-- NeverSkipping.Idle&#45;&gt;NeverSkipping.Processing -->
<g id="edge4" class="edge">
<title>NeverSkipping.Idle&#45;&gt;NeverSkipping.Processing</title>
<path fill="none" stroke="black" d="M64.1,-350.93C47.33,-346.11 33.58,-340.17 28,-333 15.72,-317.21 17.05,-304.74 28,-288 30.93,-283.52 34.58,-279.6 38.69,-276.19"/>
<polygon fill="black" stroke="black" points="40.97,-278.86 47.1,-270.22 36.92,-273.16 40.97,-278.86"/>
<text text-anchor="middle" x="86" y="-306.8" font-family="Times,serif" font-size="14.00">filter(key, value)</text>
</g>
<!-- NotSkippingPrefix.Processing -->
<g id="node8" class="node">
<title>NotSkippingPrefix.Processing</title>
<path fill="lightblue" stroke="black" d="M554,-270C554,-270 362,-270 362,-270 356,-270 350,-264 350,-258 350,-258 350,-246 350,-246 350,-240 356,-234 362,-234 362,-234 554,-234 554,-234 560,-234 566,-240 566,-246 566,-246 566,-258 566,-258 566,-264 560,-270 554,-270"/>
<text text-anchor="middle" x="458" y="-248.2" font-family="Times,serif" font-size="16.00">NotSkippingPrefix</text>
</g>
<!-- NotSkippingPrefix.Idle&#45;&gt;NotSkippingPrefix.Processing -->
<g id="edge5" class="edge">
<title>NotSkippingPrefix.Idle&#45;&gt;NotSkippingPrefix.Processing</title>
<path fill="none" stroke="black" d="M395.69,-350.84C392.38,-333.75 390.03,-307.33 401,-288 403.42,-283.74 406.58,-279.94 410.19,-276.55"/>
<polygon fill="black" stroke="black" points="412.5,-279.18 418.1,-270.18 408.11,-273.73 412.5,-279.18"/>
<text text-anchor="middle" x="459" y="-306.8" font-family="Times,serif" font-size="14.00">filter(key, value)</text>
</g>
<!-- SkippingPrefix.Idle -->
<g id="node6" class="node">
<title>SkippingPrefix.Idle</title>
<path fill="lightgrey" stroke="black" d="M554,-138C554,-138 362,-138 362,-138 356,-138 350,-132 350,-126 350,-126 350,-114 350,-114 350,-108 356,-102 362,-102 362,-102 554,-102 554,-102 560,-102 566,-108 566,-114 566,-114 566,-126 566,-126 566,-132 560,-138 554,-138"/>
<text text-anchor="middle" x="458" y="-116.2" font-family="Times,serif" font-size="16.00">SkippingPrefix</text>
</g>
<!-- SkippingPrefix.Processing -->
<g id="node9" class="node">
<title>SkippingPrefix.Processing</title>
<path fill="lightblue" stroke="black" d="M691,-36C691,-36 499,-36 499,-36 493,-36 487,-30 487,-24 487,-24 487,-12 487,-12 487,-6 493,0 499,0 499,0 691,0 691,0 697,0 703,-6 703,-12 703,-12 703,-24 703,-24 703,-30 697,-36 691,-36"/>
<text text-anchor="middle" x="595" y="-14.2" font-family="Times,serif" font-size="16.00">SkippingPrefix</text>
</g>
<!-- SkippingPrefix.Idle&#45;&gt;SkippingPrefix.Processing -->
<g id="edge6" class="edge">
<title>SkippingPrefix.Idle&#45;&gt;SkippingPrefix.Processing</title>
<path fill="none" stroke="black" d="M452.35,-101.95C448.76,-87.65 446.54,-67.45 457,-54 461.44,-48.29 471.08,-43.36 483.3,-39.15"/>
<polygon fill="black" stroke="black" points="484.61,-42.41 493.1,-36.07 482.51,-35.73 484.61,-42.41"/>
<text text-anchor="middle" x="515" y="-65.3" font-family="Times,serif" font-size="14.00">filter(key, value)</text>
</g>
<!-- NeverSkipping.Processing&#45;&gt;END -->
<g id="edge7" class="edge">
<title>NeverSkipping.Processing&#45;&gt;END</title>
<path fill="none" stroke="black" d="M102.91,-233.88C97.93,-213.45 93.18,-179.15 109,-156 123.79,-134.35 154.41,-126.09 175.08,-122.94"/>
<polygon fill="black" stroke="black" points="175.62,-126.4 185.11,-121.69 174.76,-119.45 175.62,-126.4"/>
<text text-anchor="middle" x="185" y="-189.8" font-family="Times,serif" font-size="14.00">[nKeys == maxKeys]</text>
<text text-anchor="middle" x="185" y="-174.8" font-family="Times,serif" font-size="14.00">&#45;&gt; FILTER_END</text>
</g>
<!-- NeverSkipping.Processing&#45;&gt;NeverSkipping.Idle -->
<g id="edge8" class="edge">
<title>NeverSkipping.Processing&#45;&gt;NeverSkipping.Idle</title>
<path fill="none" stroke="black" d="M129.49,-270.27C134.87,-275.48 140.18,-281.55 144,-288 153.56,-304.17 159.09,-324.63 162.21,-340.81"/>
<polygon fill="black" stroke="black" points="158.78,-341.49 163.94,-350.74 165.68,-340.29 158.78,-341.49"/>
<text text-anchor="middle" x="265.5" y="-321.8" font-family="Times,serif" font-size="14.00">[nKeys &lt; maxKeys]</text>
<text text-anchor="middle" x="265.5" y="-306.8" font-family="Times,serif" font-size="14.00">/ Contents.append(key, value)</text>
<text text-anchor="middle" x="265.5" y="-291.8" font-family="Times,serif" font-size="14.00"> &#45;&gt; FILTER_ACCEPT</text>
</g>
<!-- NotSkippingPrefix.Processing&#45;&gt;END -->
<g id="edge9" class="edge">
<title>NotSkippingPrefix.Processing&#45;&gt;END</title>
<path fill="none" stroke="black" d="M349.96,-237.93C333,-232.81 316.36,-225.74 302,-216 275.27,-197.87 285.01,-177.6 261,-156 247.64,-143.98 229.41,-134.62 215.65,-128.62"/>
<polygon fill="black" stroke="black" points="216.74,-125.28 206.16,-124.7 214.07,-131.75 216.74,-125.28"/>
<text text-anchor="middle" x="378" y="-189.8" font-family="Times,serif" font-size="14.00">[nKeys == maxKeys]</text>
<text text-anchor="middle" x="378" y="-174.8" font-family="Times,serif" font-size="14.00"> &#45;&gt; FILTER_END</text>
</g>
<!-- NotSkippingPrefix.Processing&#45;&gt;NotSkippingPrefix.Idle -->
<g id="edge11" class="edge">
<title>NotSkippingPrefix.Processing&#45;&gt;NotSkippingPrefix.Idle</title>
<path fill="none" stroke="black" d="M499.64,-270.11C506.59,-274.86 512.87,-280.76 517,-288 526.9,-305.38 528.94,-316.96 517,-333 513.56,-337.62 509.53,-341.66 505.07,-345.18"/>
<polygon fill="black" stroke="black" points="502.89,-342.43 496.63,-350.98 506.85,-348.2 502.89,-342.43"/>
<text text-anchor="middle" x="690.5" y="-321.8" font-family="Times,serif" font-size="14.00">[nKeys &lt; maxKeys and not hasDelimiter(key)]</text>
<text text-anchor="middle" x="690.5" y="-306.8" font-family="Times,serif" font-size="14.00">/ Contents.append(key, value)</text>
<text text-anchor="middle" x="690.5" y="-291.8" font-family="Times,serif" font-size="14.00"> &#45;&gt; FILTER_ACCEPT</text>
</g>
<!-- NotSkippingPrefix.Processing&#45;&gt;SkippingPrefix.Idle -->
<g id="edge10" class="edge">
<title>NotSkippingPrefix.Processing&#45;&gt;SkippingPrefix.Idle</title>
<path fill="none" stroke="black" d="M458,-233.74C458,-211.98 458,-174.32 458,-148.56"/>
<polygon fill="black" stroke="black" points="461.5,-148.33 458,-138.33 454.5,-148.33 461.5,-148.33"/>
<text text-anchor="middle" x="609.5" y="-204.8" font-family="Times,serif" font-size="14.00">[nKeys &lt; maxKeys and hasDelimiter(key)]</text>
<text text-anchor="middle" x="609.5" y="-189.8" font-family="Times,serif" font-size="14.00">/ prefix &lt;&#45; prefixOf(key)</text>
<text text-anchor="middle" x="609.5" y="-174.8" font-family="Times,serif" font-size="14.00">/ CommonPrefixes.append(prefixOf(key))</text>
<text text-anchor="middle" x="609.5" y="-159.8" font-family="Times,serif" font-size="14.00">&#45;&gt; FILTER_ACCEPT</text>
</g>
<!-- SkippingPrefix.Processing&#45;&gt;SkippingPrefix.Idle -->
<g id="edge12" class="edge">
<title>SkippingPrefix.Processing&#45;&gt;SkippingPrefix.Idle</title>
<path fill="none" stroke="black" d="M593.49,-36.23C591.32,-50.84 586,-71.39 573,-84 567.75,-89.09 561.77,-93.45 555.38,-97.17"/>
<polygon fill="black" stroke="black" points="553.66,-94.12 546.43,-101.87 556.91,-100.32 553.66,-94.12"/>
<text text-anchor="middle" x="672" y="-72.8" font-family="Times,serif" font-size="14.00">[key.startsWith(prefix)]</text>
<text text-anchor="middle" x="672" y="-57.8" font-family="Times,serif" font-size="14.00">&#45;&gt; FILTER_SKIP</text>
</g>
<!-- SkippingPrefix.Processing&#45;&gt;NotSkippingPrefix.Processing -->
<g id="edge13" class="edge">
<title>SkippingPrefix.Processing&#45;&gt;NotSkippingPrefix.Processing</title>
<path fill="none" stroke="black" d="M703.16,-31.64C728.6,-36.87 750.75,-44.11 759,-54 778.46,-77.34 776.26,-200.01 762,-216 749.37,-230.17 656.13,-239.42 576.2,-244.84"/>
<polygon fill="black" stroke="black" points="575.77,-241.36 566.03,-245.51 576.24,-248.34 575.77,-241.36"/>
<text text-anchor="middle" x="870" y="-116.3" font-family="Times,serif" font-size="14.00">[not key.startsWith(prefix)]</text>
</g>
</g>
</svg>
