<?xml version="1.0" encoding="UTF-8" standalone="no"?>
<!DOCTYPE svg PUBLIC "-//W3C//DTD SVG 1.1//EN"
 "http://www.w3.org/Graphics/SVG/1.1/DTD/svg11.dtd">
<!-- Generated by graphviz version 2.43.0 (0)
 -->
<!-- Title: %3 Pages: 1 -->
<svg width="2313pt" height="460pt"
 viewBox="0.00 0.00 2313.37 460.00" xmlns="http://www.w3.org/2000/svg" xmlns:xlink="http://www.w3.org/1999/xlink">
<g id="graph0" class="graph" transform="scale(1 1) rotate(0) translate(4 456)">
<title>%3</title>
<polygon fill="white" stroke="transparent" points="-4,4 -4,-456 2309.37,-456 2309.37,4 -4,4"/>
<!-- START -->
<g id="node1" class="node">
<title>START</title>
<ellipse fill="black" stroke="black" cx="35.37" cy="-445" rx="7" ry="7"/>
</g>
<!-- NotSkippingPrefixNorVersions.Idle -->
<g id="node3" class="node">
<title>NotSkippingPrefixNorVersions.Idle</title>
<path fill="lightgrey" stroke="black" d="M925.37,-387C925.37,-387 661.37,-387 661.37,-387 655.37,-387 649.37,-381 649.37,-375 649.37,-375 649.37,-363 649.37,-363 649.37,-357 655.37,-351 661.37,-351 661.37,-351 925.37,-351 925.37,-351 931.37,-351 937.37,-357 937.37,-363 937.37,-363 937.37,-375 937.37,-375 937.37,-381 931.37,-387 925.37,-387"/>
<text text-anchor="middle" x="793.37" y="-365.2" font-family="Times,serif" font-size="16.00">NotSkippingPrefixNorVersions</text>
</g>
<!-- START&#45;&gt;NotSkippingPrefixNorVersions.Idle -->
<g id="edge2" class="edge">
<title>START&#45;&gt;NotSkippingPrefixNorVersions.Idle</title>
<path fill="none" stroke="black" d="M42.39,-443.31C95.3,-438.15 434.98,-404.99 638.94,-385.08"/>
<polygon fill="black" stroke="black" points="639.54,-388.53 649.15,-384.08 638.86,-381.57 639.54,-388.53"/>
<text text-anchor="middle" x="497.87" y="-408.8" font-family="Times,serif" font-size="14.00">[marker == undefined]</text>
</g>
<!-- SkippingVersions.Idle -->
<g id="node5" class="node">
<title>SkippingVersions.Idle</title>
<path fill="lightgrey" stroke="black" d="M242.37,-138C242.37,-138 50.37,-138 50.37,-138 44.37,-138 38.37,-132 38.37,-126 38.37,-126 38.37,-114 38.37,-114 38.37,-108 44.37,-102 50.37,-102 50.37,-102 242.37,-102 242.37,-102 248.37,-102 254.37,-108 254.37,-114 254.37,-114 254.37,-126 254.37,-126 254.37,-132 248.37,-138 242.37,-138"/>
<text text-anchor="middle" x="146.37" y="-116.2" font-family="Times,serif" font-size="16.00">SkippingVersions</text>
</g>
<!-- START&#45;&gt;SkippingVersions.Idle -->
<g id="edge1" class="edge">
<title>START&#45;&gt;SkippingVersions.Idle</title>
<path fill="none" stroke="black" d="M33.04,-438.14C20.64,-405.9 -34.57,-248.17 33.37,-156 36.76,-151.4 40.74,-147.39 45.16,-143.89"/>
<polygon fill="black" stroke="black" points="47.27,-146.68 53.53,-138.13 43.3,-140.92 47.27,-146.68"/>
<text text-anchor="middle" x="85.87" y="-321.8" font-family="Times,serif" font-size="14.00">[marker != undefined]</text>
</g>
<!-- END -->
<g id="node2" class="node">
<title>END</title>
<ellipse fill="black" stroke="black" cx="727.37" cy="-120" rx="7" ry="7"/>
<ellipse fill="none" stroke="black" cx="727.37" cy="-120" rx="11" ry="11"/>
</g>
<!-- NotSkippingPrefixNorVersions.Processing -->
<g id="node7" class="node">
<title>NotSkippingPrefixNorVersions.Processing</title>
<path fill="lightblue" stroke="black" d="M925.37,-300C925.37,-300 661.37,-300 661.37,-300 655.37,-300 649.37,-294 649.37,-288 649.37,-288 649.37,-276 649.37,-276 649.37,-270 655.37,-264 661.37,-264 661.37,-264 925.37,-264 925.37,-264 931.37,-264 937.37,-270 937.37,-276 937.37,-276 937.37,-288 937.37,-288 937.37,-294 931.37,-300 925.37,-300"/>
<text text-anchor="middle" x="793.37" y="-278.2" font-family="Times,serif" font-size="16.00">NotSkippingPrefixNorVersions</text>
</g>
<!-- NotSkippingPrefixNorVersions.Idle&#45;&gt;NotSkippingPrefixNorVersions.Processing -->
<g id="edge3" class="edge">
<title>NotSkippingPrefixNorVersions.Idle&#45;&gt;NotSkippingPrefixNorVersions.Processing</title>
<path fill="none" stroke="black" d="M793.37,-350.8C793.37,-339.16 793.37,-323.55 793.37,-310.24"/>
<polygon fill="black" stroke="black" points="796.87,-310.18 793.37,-300.18 789.87,-310.18 796.87,-310.18"/>
<text text-anchor="middle" x="851.37" y="-321.8" font-family="Times,serif" font-size="14.00">filter(key, value)</text>
</g>
<!-- SkippingPrefix.Idle -->
<g id="node4" class="node">
<title>SkippingPrefix.Idle</title>
<path fill="lightgrey" stroke="black" d="M1209.37,-138C1209.37,-138 1017.37,-138 1017.37,-138 1011.37,-138 1005.37,-132 1005.37,-126 1005.37,-126 1005.37,-114 1005.37,-114 1005.37,-108 1011.37,-102 1017.37,-102 1017.37,-102 1209.37,-102 1209.37,-102 1215.37,-102 1221.37,-108 1221.37,-114 1221.37,-114 1221.37,-126 1221.37,-126 1221.37,-132 1215.37,-138 1209.37,-138"/>
<text text-anchor="middle" x="1113.37" y="-116.2" font-family="Times,serif" font-size="16.00">SkippingPrefix</text>
</g>
<!-- SkippingPrefix.Processing -->
<g id="node8" class="node">
<title>SkippingPrefix.Processing</title>
<path fill="lightblue" stroke="black" d="M1070.37,-36C1070.37,-36 878.37,-36 878.37,-36 872.37,-36 866.37,-30 866.37,-24 866.37,-24 866.37,-12 866.37,-12 866.37,-6 872.37,0 878.37,0 878.37,0 1070.37,0 1070.37,0 1076.37,0 1082.37,-6 1082.37,-12 1082.37,-12 1082.37,-24 1082.37,-24 1082.37,-30 1076.37,-36 1070.37,-36"/>
<text text-anchor="middle" x="974.37" y="-14.2" font-family="Times,serif" font-size="16.00">SkippingPrefix</text>
</g>
<!-- SkippingPrefix.Idle&#45;&gt;SkippingPrefix.Processing -->
<g id="edge4" class="edge">
<title>SkippingPrefix.Idle&#45;&gt;SkippingPrefix.Processing</title>
<path fill="none" stroke="black" d="M1011.89,-101.96C994.96,-97.13 981.04,-91.17 975.37,-84 967.11,-73.56 966.25,-58.93 967.72,-46.2"/>
<polygon fill="black" stroke="black" points="971.22,-46.52 969.4,-36.09 964.31,-45.38 971.22,-46.52"/>
<text text-anchor="middle" x="1033.37" y="-65.3" font-family="Times,serif" font-size="14.00">filter(key, value)</text>
</g>
<!-- SkippingVersions.Processing -->
<g id="node9" class="node">
<title>SkippingVersions.Processing</title>
<path fill="lightblue" stroke="black" d="M381.37,-36C381.37,-36 189.37,-36 189.37,-36 183.37,-36 177.37,-30 177.37,-24 177.37,-24 177.37,-12 177.37,-12 177.37,-6 183.37,0 189.37,0 189.37,0 381.37,0 381.37,0 387.37,0 393.37,-6 393.37,-12 393.37,-12 393.37,-24 393.37,-24 393.37,-30 387.37,-36 381.37,-36"/>
<text text-anchor="middle" x="285.37" y="-14.2" font-family="Times,serif" font-size="16.00">SkippingVersions</text>
</g>
<!-- SkippingVersions.Idle&#45;&gt;SkippingVersions.Processing -->
<g id="edge5" class="edge">
<title>SkippingVersions.Idle&#45;&gt;SkippingVersions.Processing</title>
<path fill="none" stroke="black" d="M141.4,-101.91C138.35,-87.58 136.8,-67.37 147.37,-54 151.89,-48.28 161.64,-43.34 173.99,-39.12"/>
<polygon fill="black" stroke="black" points="175.39,-42.36 183.89,-36.04 173.3,-35.67 175.39,-42.36"/>
<text text-anchor="middle" x="205.37" y="-65.3" font-family="Times,serif" font-size="14.00">filter(key, value)</text>
</g>
<!-- WaitVersionAfterPHD.Idle -->
<g id="node6" class="node">
<title>WaitVersionAfterPHD.Idle</title>
<path fill="lightgrey" stroke="black" d="M1534.37,-138C1534.37,-138 1342.37,-138 1342.37,-138 1336.37,-138 1330.37,-132 1330.37,-126 1330.37,-126 1330.37,-114 1330.37,-114 1330.37,-108 1336.37,-102 1342.37,-102 1342.37,-102 1534.37,-102 1534.37,-102 1540.37,-102 1546.37,-108 1546.37,-114 1546.37,-114 1546.37,-126 1546.37,-126 1546.37,-132 1540.37,-138 1534.37,-138"/>
<text text-anchor="middle" x="1438.37" y="-116.2" font-family="Times,serif" font-size="16.00">WaitVersionAfterPHD</text>
</g>
<!-- WaitVersionAfterPHD.Processing -->
<g id="node10" class="node">
<title>WaitVersionAfterPHD.Processing</title>
<path fill="lightblue" stroke="black" d="M1534.37,-36C1534.37,-36 1342.37,-36 1342.37,-36 1336.37,-36 1330.37,-30 1330.37,-24 1330.37,-24 1330.37,-12 1330.37,-12 1330.37,-6 1336.37,0 1342.37,0 1342.37,0 1534.37,0 1534.37,0 1540.37,0 1546.37,-6 1546.37,-12 1546.37,-12 1546.37,-24 1546.37,-24 1546.37,-30 1540.37,-36 1534.37,-36"/>
<text text-anchor="middle" x="1438.37" y="-14.2" font-family="Times,serif" font-size="16.00">WaitVersionAfterPHD</text>
</g>
<!-- WaitVersionAfterPHD.Idle&#45;&gt;WaitVersionAfterPHD.Processing -->
<g id="edge6" class="edge">
<title>WaitVersionAfterPHD.Idle&#45;&gt;WaitVersionAfterPHD.Processing</title>
<path fill="none" stroke="black" d="M1438.37,-101.58C1438.37,-86.38 1438.37,-64.07 1438.37,-46.46"/>
<polygon fill="black" stroke="black" points="1441.87,-46.22 1438.37,-36.22 1434.87,-46.22 1441.87,-46.22"/>
<text text-anchor="middle" x="1496.37" y="-65.3" font-family="Times,serif" font-size="14.00">filter(key, value)</text>
</g>
<!-- NotSkippingPrefixNorVersions.Processing&#45;&gt;END -->
<g id="edge10" class="edge">
<title>NotSkippingPrefixNorVersions.Processing&#45;&gt;END</title>
<path fill="none" stroke="black" d="M649.15,-273.62C611.7,-268.54 578.44,-260.07 566.37,-246 540.33,-215.64 540,-186.08 566.37,-156 586.46,-133.07 673.88,-148.86 702.37,-138 705.22,-136.91 708.06,-135.44 710.76,-133.82"/>
<polygon fill="black" stroke="black" points="712.88,-136.61 719.13,-128.05 708.91,-130.84 712.88,-136.61"/>
<text text-anchor="middle" x="672.87" y="-212.3" font-family="Times,serif" font-size="14.00">[isListableKey(key, value) and</text>
<text text-anchor="middle" x="672.87" y="-197.3" font-family="Times,serif" font-size="14.00">Keys == maxKeys]</text>
<text text-anchor="middle" x="672.87" y="-182.3" font-family="Times,serif" font-size="14.00">&#45;&gt; FILTER_END</text>
</g>
<!-- NotSkippingPrefixNorVersions.Processing&#45;&gt;SkippingPrefix.Idle -->
<g id="edge9" class="edge">
<title>NotSkippingPrefixNorVersions.Processing&#45;&gt;SkippingPrefix.Idle</title>
<path fill="none" stroke="black" d="M937.6,-274.31C1018.89,-269.01 1106.69,-260.11 1119.37,-246 1143.16,-219.51 1134.03,-175.72 1124.38,-147.62"/>
<polygon fill="black" stroke="black" points="1127.6,-146.22 1120.86,-138.04 1121.03,-148.64 1127.6,-146.22"/>
<text text-anchor="middle" x="1254.37" y="-212.3" font-family="Times,serif" font-size="14.00">[key.startsWith(&lt;ReplayPrefix&gt;)]</text>
<text text-anchor="middle" x="1254.37" y="-197.3" font-family="Times,serif" font-size="14.00">/ prefix &lt;&#45; &lt;ReplayPrefix&gt;</text>
<text text-anchor="middle" x="1254.37" y="-182.3" font-family="Times,serif" font-size="14.00">&#45;&gt; FILTER_SKIP</text>
</g>
<!-- NotSkippingPrefixNorVersions.Processing&#45;&gt;SkippingPrefix.Idle -->
<g id="edge11" class="edge">
<title>NotSkippingPrefixNorVersions.Processing&#45;&gt;SkippingPrefix.Idle</title>
<path fill="none" stroke="black" d="M799.18,-263.65C800.96,-258.05 802.85,-251.79 804.37,-246 814.73,-206.45 793.03,-183.41 823.37,-156 851.23,-130.83 954.1,-142.59 991.37,-138 992.65,-137.84 993.94,-137.68 995.24,-137.52"/>
<polygon fill="black" stroke="black" points="995.81,-140.98 1005.29,-136.25 994.93,-134.03 995.81,-140.98"/>
<text text-anchor="middle" x="969.37" y="-234.8" font-family="Times,serif" font-size="14.00">[isListableKey(key, value) and</text>
<text text-anchor="middle" x="969.37" y="-219.8" font-family="Times,serif" font-size="14.00">nKeys &lt; maxKeys and</text>
<text text-anchor="middle" x="969.37" y="-204.8" font-family="Times,serif" font-size="14.00">hasDelimiter(key)]</text>
<text text-anchor="middle" x="969.37" y="-189.8" font-family="Times,serif" font-size="14.00">/ prefix &lt;&#45; prefixOf(key)</text>
<text text-anchor="middle" x="969.37" y="-174.8" font-family="Times,serif" font-size="14.00">/ CommonPrefixes.append(prefixOf(key))</text>
<text text-anchor="middle" x="969.37" y="-159.8" font-family="Times,serif" font-size="14.00">&#45;&gt; FILTER_ACCEPT</text>
</g>
<!-- NotSkippingPrefixNorVersions.Processing&#45;&gt;SkippingVersions.Idle -->
<g id="edge7" class="edge">
<title>NotSkippingPrefixNorVersions.Processing&#45;&gt;SkippingVersions.Idle</title>
<path fill="none" stroke="black" d="M649.11,-279.23C439.56,-275.94 73.58,-267.19 53.37,-246 25.76,-217.06 30.6,-188.89 53.37,-156 56.56,-151.39 60.44,-147.39 64.78,-143.91"/>
<polygon fill="black" stroke="black" points="66.8,-146.76 73.04,-138.2 62.83,-141 66.8,-146.76"/>
<text text-anchor="middle" x="167.87" y="-204.8" font-family="Times,serif" font-size="14.00">[Version.isDeleteMarker(value)]</text>
<text text-anchor="middle" x="167.87" y="-189.8" font-family="Times,serif" font-size="14.00">&#45;&gt; FILTER_ACCEPT</text>
</g>
<!-- NotSkippingPrefixNorVersions.Processing&#45;&gt;SkippingVersions.Idle -->
<g id="edge12" class="edge">
<title>NotSkippingPrefixNorVersions.Processing&#45;&gt;SkippingVersions.Idle</title>
<path fill="none" stroke="black" d="M649.33,-279.1C514.97,-275.99 331.4,-267.75 305.37,-246 273.69,-219.53 311.53,-185.22 282.37,-156 276.73,-150.36 270.32,-145.59 263.42,-141.56"/>
<polygon fill="black" stroke="black" points="264.92,-138.39 254.44,-136.84 261.67,-144.59 264.92,-138.39"/>
<text text-anchor="middle" x="411.87" y="-227.3" font-family="Times,serif" font-size="14.00">[isListableKey(key, value) and</text>
<text text-anchor="middle" x="411.87" y="-212.3" font-family="Times,serif" font-size="14.00">nKeys &lt; maxKeys and</text>
<text text-anchor="middle" x="411.87" y="-197.3" font-family="Times,serif" font-size="14.00">not hasDelimiter(key)]</text>
<text text-anchor="middle" x="411.87" y="-182.3" font-family="Times,serif" font-size="14.00">/ Contents.append(key, value)</text>
<text text-anchor="middle" x="411.87" y="-167.3" font-family="Times,serif" font-size="14.00">&#45;&gt; FILTER_ACCEPT</text>
</g>
<!-- NotSkippingPrefixNorVersions.Processing&#45;&gt;WaitVersionAfterPHD.Idle -->
<g id="edge8" class="edge">
<title>NotSkippingPrefixNorVersions.Processing&#45;&gt;WaitVersionAfterPHD.Idle</title>
<path fill="none" stroke="black" d="M937.38,-280.87C1099.43,-279.42 1344.59,-272.74 1378.37,-246 1411.11,-220.08 1384.48,-192.16 1405.37,-156 1407.38,-152.52 1409.8,-149.11 1412.4,-145.87"/>
<polygon fill="black" stroke="black" points="1415.16,-148.04 1419.13,-138.21 1409.9,-143.41 1415.16,-148.04"/>
<text text-anchor="middle" x="1486.87" y="-204.8" font-family="Times,serif" font-size="14.00">[Version.isPHD(value)]</text>
<text text-anchor="middle" x="1486.87" y="-189.8" font-family="Times,serif" font-size="14.00">&#45;&gt; FILTER_ACCEPT</text>
</g>
<!-- SkippingPrefix.Processing&#45;&gt;SkippingPrefix.Idle -->
<g id="edge13" class="edge">
<title>SkippingPrefix.Processing&#45;&gt;SkippingPrefix.Idle</title>
<path fill="none" stroke="black" d="M1064.61,-36.08C1074.44,-40.7 1083.66,-46.57 1091.37,-54 1101.65,-63.92 1107.13,-78.81 1110.04,-91.84"/>
<polygon fill="black" stroke="black" points="1106.62,-92.56 1111.88,-101.76 1113.5,-91.29 1106.62,-92.56"/>
<text text-anchor="middle" x="1190.37" y="-72.8" font-family="Times,serif" font-size="14.00">[key.startsWith(prefix)]</text>
<text text-anchor="middle" x="1190.37" y="-57.8" font-family="Times,serif" font-size="14.00">&#45;&gt; FILTER_SKIP</text>
</g>
<!-- SkippingPrefix.Processing&#45;&gt;NotSkippingPrefixNorVersions.Processing -->
<g id="edge14" class="edge">
<title>SkippingPrefix.Processing&#45;&gt;NotSkippingPrefixNorVersions.Processing</title>
<path fill="none" stroke="black" d="M899.82,-36.01C864.18,-48.2 824.54,-68.57 802.37,-102 771.84,-148.02 779.31,-216.26 786.77,-253.8"/>
<polygon fill="black" stroke="black" points="783.43,-254.92 788.94,-263.97 790.28,-253.46 783.43,-254.92"/>
<text text-anchor="middle" x="899.37" y="-116.3" font-family="Times,serif" font-size="14.00">[not key.startsWith(prefix)]</text>
</g>
<!-- SkippingVersions.Processing&#45;&gt;SkippingVersions.Idle -->
<g id="edge15" class="edge">
<title>SkippingVersions.Processing&#45;&gt;SkippingVersions.Idle</title>
<path fill="none" stroke="black" d="M283.88,-36.24C281.71,-50.87 276.4,-71.43 263.37,-84 258.07,-89.11 252.06,-93.48 245.62,-97.21"/>
<polygon fill="black" stroke="black" points="243.85,-94.19 236.61,-101.92 247.09,-100.39 243.85,-94.19"/>
<text text-anchor="middle" x="349.87" y="-72.8" font-family="Times,serif" font-size="14.00">[isVersionKey(key)]</text>
<text text-anchor="middle" x="349.87" y="-57.8" font-family="Times,serif" font-size="14.00">&#45;&gt; FILTER_SKIP</text>
</g>
<!-- SkippingVersions.Processing&#45;&gt;NotSkippingPrefixNorVersions.Processing -->
<g id="edge16" class="edge">
<title>SkippingVersions.Processing&#45;&gt;NotSkippingPrefixNorVersions.Processing</title>
<path fill="none" stroke="black" d="M382.46,-36.08C396.72,-40.7 410.82,-46.57 423.37,-54 476.67,-85.57 487.28,-102.42 518.37,-156 539.39,-192.23 514.46,-218.85 546.37,-246 561.72,-259.06 598.56,-267.25 639.23,-272.39"/>
<polygon fill="black" stroke="black" points="639.01,-275.89 649.36,-273.59 639.84,-268.93 639.01,-275.89"/>
<text text-anchor="middle" x="590.37" y="-116.3" font-family="Times,serif" font-size="14.00">[not isVersionKey(key)]</text>
</g>
<!-- WaitVersionAfterPHD.Processing&#45;&gt;NotSkippingPrefixNorVersions.Processing -->
<g id="edge17" class="edge">
<title>WaitVersionAfterPHD.Processing&#45;&gt;NotSkippingPrefixNorVersions.Processing</title>
<path fill="none" stroke="black" d="M1536.41,-36.13C1544.73,-40.79 1552.27,-46.65 1558.37,-54 1585.64,-86.89 1597.89,-215.12 1568.37,-246 1547.29,-268.05 1167.71,-276.42 947.74,-279.43"/>
<polygon fill="black" stroke="black" points="947.67,-275.93 937.71,-279.57 947.76,-282.93 947.67,-275.93"/>
<text text-anchor="middle" x="1758.37" y="-123.8" font-family="Times,serif" font-size="14.00">[isVersionKey(key) and master(key) == PHDkey]</text>
<text text-anchor="middle" x="1758.37" y="-108.8" font-family="Times,serif" font-size="14.00">/ key &lt;&#45; master(key)</text>
</g>
<!-- WaitVersionAfterPHD.Processing&#45;&gt;NotSkippingPrefixNorVersions.Processing -->
<g id="edge18" class="edge">
<title>WaitVersionAfterPHD.Processing&#45;&gt;NotSkippingPrefixNorVersions.Processing</title>
<path fill="none" stroke="black" d="M1546.51,-21.25C1677.94,-26.54 1888.29,-44.09 1937.37,-102 1947.71,-114.21 1946.85,-125.11 1937.37,-138 1841.62,-268.08 1749.48,-218.23 1590.37,-246 1471.26,-266.79 1143.92,-275.5 947.77,-278.94"/>
<polygon fill="black" stroke="black" points="947.6,-275.44 937.66,-279.11 947.72,-282.44 947.6,-275.44"/>
<text text-anchor="middle" x="2124.87" y="-116.3" font-family="Times,serif" font-size="14.00">[not isVersionKey(key) or master(key) != PHDkey]</text>
</g>
</g>
</svg>
