<?xml version="1.0" encoding="UTF-8" standalone="no"?>
<!DOCTYPE svg PUBLIC "-//W3C//DTD SVG 1.1//EN"
 "http://www.w3.org/Graphics/SVG/1.1/DTD/svg11.dtd">
<!-- Generated by graphviz version 2.43.0 (0)
 -->
<!-- Title: %3 Pages: 1 -->
<svg width="1522pt" height="922pt"
 viewBox="0.00 0.00 1522.26 922.00" xmlns="http://www.w3.org/2000/svg" xmlns:xlink="http://www.w3.org/1999/xlink">
<g id="graph0" class="graph" transform="scale(1 1) rotate(0) translate(4 918)">
<title>%3</title>
<polygon fill="white" stroke="transparent" points="-4,4 -4,-918 1518.26,-918 1518.26,4 -4,4"/>
<!-- START -->
<g id="node1" class="node">
<title>START</title>
<ellipse fill="black" stroke="black" cx="393.26" cy="-907" rx="7" ry="7"/>
</g>
<!-- NotSkipping.Idle -->
<g id="node3" class="node">
<title>NotSkipping.Idle</title>
<path fill="lightgrey" stroke="black" d="M436.26,-675C436.26,-675 172.26,-675 172.26,-675 166.26,-675 160.26,-669 160.26,-663 160.26,-663 160.26,-651 160.26,-651 160.26,-645 166.26,-639 172.26,-639 172.26,-639 436.26,-639 436.26,-639 442.26,-639 448.26,-645 448.26,-651 448.26,-651 448.26,-663 448.26,-663 448.26,-669 442.26,-675 436.26,-675"/>
<text text-anchor="middle" x="304.26" y="-653.2" font-family="Times,serif" font-size="16.00">NotSkipping</text>
</g>
<!-- START&#45;&gt;NotSkipping.Idle -->
<g id="edge2" class="edge">
<title>START&#45;&gt;NotSkipping.Idle</title>
<path fill="none" stroke="black" d="M391.06,-899.87C380.45,-870.31 334.26,-741.58 313.93,-684.93"/>
<polygon fill="black" stroke="black" points="317.12,-683.46 310.45,-675.23 310.53,-685.82 317.12,-683.46"/>
<text text-anchor="middle" x="470.76" y="-783.8" font-family="Times,serif" font-size="14.00">[versionIdMarker == undefined]</text>
</g>
<!-- WaitForNullKey.Idle -->
<g id="node5" class="node">
<title>WaitForNullKey.Idle</title>
<path fill="lightgrey" stroke="black" d="M692.26,-849C692.26,-849 500.26,-849 500.26,-849 494.26,-849 488.26,-843 488.26,-837 488.26,-837 488.26,-825 488.26,-825 488.26,-819 494.26,-813 500.26,-813 500.26,-813 692.26,-813 692.26,-813 698.26,-813 704.26,-819 704.26,-825 704.26,-825 704.26,-837 704.26,-837 704.26,-843 698.26,-849 692.26,-849"/>
<text text-anchor="middle" x="596.26" y="-827.2" font-family="Times,serif" font-size="16.00">WaitForNullKey</text>
</g>
<!-- START&#45;&gt;WaitForNullKey.Idle -->
<g id="edge1" class="edge">
<title>START&#45;&gt;WaitForNullKey.Idle</title>
<path fill="none" stroke="black" d="M399.56,-903.7C420.56,-896.05 489.7,-870.85 540.08,-852.48"/>
<polygon fill="black" stroke="black" points="541.38,-855.73 549.57,-849.02 538.98,-849.16 541.38,-855.73"/>
<text text-anchor="middle" x="608.76" y="-870.8" font-family="Times,serif" font-size="14.00">[versionIdMarker != undefined]</text>
</g>
<!-- END -->
<g id="node2" class="node">
<title>END</title>
<ellipse fill="black" stroke="black" cx="45.26" cy="-120" rx="7" ry="7"/>
<ellipse fill="none" stroke="black" cx="45.26" cy="-120" rx="11" ry="11"/>
</g>
<!-- NotSkipping.Processing -->
<g id="node7" class="node">
<title>NotSkipping.Processing</title>
<path fill="lightblue" stroke="black" d="M761.26,-558C761.26,-558 497.26,-558 497.26,-558 491.26,-558 485.26,-552 485.26,-546 485.26,-546 485.26,-534 485.26,-534 485.26,-528 491.26,-522 497.26,-522 497.26,-522 761.26,-522 761.26,-522 767.26,-522 773.26,-528 773.26,-534 773.26,-534 773.26,-546 773.26,-546 773.26,-552 767.26,-558 761.26,-558"/>
<text text-anchor="middle" x="629.26" y="-536.2" font-family="Times,serif" font-size="16.00">NotSkipping</text>
</g>
<!-- NotSkipping.Idle&#45;&gt;NotSkipping.Processing -->
<g id="edge3" class="edge">
<title>NotSkipping.Idle&#45;&gt;NotSkipping.Processing</title>
<path fill="none" stroke="black" d="M333.17,-638.98C364.86,-620.99 417.68,-592.92 466.26,-576 483.64,-569.95 502.44,-564.74 520.88,-560.34"/>
<polygon fill="black" stroke="black" points="521.83,-563.71 530.78,-558.04 520.25,-556.89 521.83,-563.71"/>
<text text-anchor="middle" x="524.26" y="-594.8" font-family="Times,serif" font-size="14.00">filter(key, value)</text>
</g>
<!-- SkippingPrefix.Idle -->
<g id="node4" class="node">
<title>SkippingPrefix.Idle</title>
<path fill="lightgrey" stroke="black" d="M662.26,-138C662.26,-138 470.26,-138 470.26,-138 464.26,-138 458.26,-132 458.26,-126 458.26,-126 458.26,-114 458.26,-114 458.26,-108 464.26,-102 470.26,-102 470.26,-102 662.26,-102 662.26,-102 668.26,-102 674.26,-108 674.26,-114 674.26,-114 674.26,-126 674.26,-126 674.26,-132 668.26,-138 662.26,-138"/>
<text text-anchor="middle" x="566.26" y="-116.2" font-family="Times,serif" font-size="16.00">SkippingPrefix</text>
</g>
<!-- SkippingPrefix.Processing -->
<g id="node11" class="node">
<title>SkippingPrefix.Processing</title>
<path fill="lightblue" stroke="black" d="M779.26,-36C779.26,-36 587.26,-36 587.26,-36 581.26,-36 575.26,-30 575.26,-24 575.26,-24 575.26,-12 575.26,-12 575.26,-6 581.26,0 587.26,0 587.26,0 779.26,0 779.26,0 785.26,0 791.26,-6 791.26,-12 791.26,-12 791.26,-24 791.26,-24 791.26,-30 785.26,-36 779.26,-36"/>
<text text-anchor="middle" x="683.26" y="-14.2" font-family="Times,serif" font-size="16.00">SkippingPrefix</text>
</g>
<!-- SkippingPrefix.Idle&#45;&gt;SkippingPrefix.Processing -->
<g id="edge4" class="edge">
<title>SkippingPrefix.Idle&#45;&gt;SkippingPrefix.Processing</title>
<path fill="none" stroke="black" d="M552.64,-101.74C543.31,-87.68 534.41,-67.95 545.26,-54 549.71,-48.29 559.34,-43.36 571.56,-39.15"/>
<polygon fill="black" stroke="black" points="572.87,-42.41 581.36,-36.07 570.77,-35.73 572.87,-42.41"/>
<text text-anchor="middle" x="603.26" y="-65.3" font-family="Times,serif" font-size="14.00">filter(key, value)</text>
</g>
<!-- WaitForNullKey.Processing -->
<g id="node12" class="node">
<title>WaitForNullKey.Processing</title>
<path fill="lightblue" stroke="black" d="M692.26,-762C692.26,-762 500.26,-762 500.26,-762 494.26,-762 488.26,-756 488.26,-750 488.26,-750 488.26,-738 488.26,-738 488.26,-732 494.26,-726 500.26,-726 500.26,-726 692.26,-726 692.26,-726 698.26,-726 704.26,-732 704.26,-738 704.26,-738 704.26,-750 704.26,-750 704.26,-756 698.26,-762 692.26,-762"/>
<text text-anchor="middle" x="596.26" y="-740.2" font-family="Times,serif" font-size="16.00">WaitForNullKey</text>
</g>
<!-- WaitForNullKey.Idle&#45;&gt;WaitForNullKey.Processing -->
<g id="edge5" class="edge">
<title>WaitForNullKey.Idle&#45;&gt;WaitForNullKey.Processing</title>
<path fill="none" stroke="black" d="M596.26,-812.8C596.26,-801.16 596.26,-785.55 596.26,-772.24"/>
<polygon fill="black" stroke="black" points="599.76,-772.18 596.26,-762.18 592.76,-772.18 599.76,-772.18"/>
<text text-anchor="middle" x="654.26" y="-783.8" font-family="Times,serif" font-size="14.00">filter(key, value)</text>
</g>
<!-- SkippingVersions.Idle -->
<g id="node6" class="node">
<title>SkippingVersions.Idle</title>
<path fill="lightgrey" stroke="black" d="M1241.26,-558C1241.26,-558 1049.26,-558 1049.26,-558 1043.26,-558 1037.26,-552 1037.26,-546 1037.26,-546 1037.26,-534 1037.26,-534 1037.26,-528 1043.26,-522 1049.26,-522 1049.26,-522 1241.26,-522 1241.26,-522 1247.26,-522 1253.26,-528 1253.26,-534 1253.26,-534 1253.26,-546 1253.26,-546 1253.26,-552 1247.26,-558 1241.26,-558"/>
<text text-anchor="middle" x="1145.26" y="-536.2" font-family="Times,serif" font-size="16.00">SkippingVersions</text>
</g>
<!-- SkippingVersions.Processing -->
<g id="node13" class="node">
<title>SkippingVersions.Processing</title>
<path fill="lightblue" stroke="black" d="M1241.26,-675C1241.26,-675 1049.26,-675 1049.26,-675 1043.26,-675 1037.26,-669 1037.26,-663 1037.26,-663 1037.26,-651 1037.26,-651 1037.26,-645 1043.26,-639 1049.26,-639 1049.26,-639 1241.26,-639 1241.26,-639 1247.26,-639 1253.26,-645 1253.26,-651 1253.26,-651 1253.26,-663 1253.26,-663 1253.26,-669 1247.26,-675 1241.26,-675"/>
<text text-anchor="middle" x="1145.26" y="-653.2" font-family="Times,serif" font-size="16.00">SkippingVersions</text>
</g>
<!-- SkippingVersions.Idle&#45;&gt;SkippingVersions.Processing -->
<g id="edge6" class="edge">
<title>SkippingVersions.Idle&#45;&gt;SkippingVersions.Processing</title>
<path fill="none" stroke="black" d="M1145.26,-558.25C1145.26,-576.77 1145.26,-606.45 1145.26,-628.25"/>
<polygon fill="black" stroke="black" points="1141.76,-628.53 1145.26,-638.53 1148.76,-628.53 1141.76,-628.53"/>
<text text-anchor="middle" x="1203.26" y="-594.8" font-family="Times,serif" font-size="14.00">filter(key, value)</text>
</g>
<!-- NotSkippingV0.Processing -->
<g id="node8" class="node">
<title>NotSkippingV0.Processing</title>
<path fill="lightblue" stroke="black" d="M436.26,-411C436.26,-411 172.26,-411 172.26,-411 166.26,-411 160.26,-405 160.26,-399 160.26,-399 160.26,-387 160.26,-387 160.26,-381 166.26,-375 172.26,-375 172.26,-375 436.26,-375 436.26,-375 442.26,-375 448.26,-381 448.26,-387 448.26,-387 448.26,-399 448.26,-399 448.26,-405 442.26,-411 436.26,-411"/>
<text text-anchor="middle" x="304.26" y="-389.2" font-family="Times,serif" font-size="16.00">NotSkippingV0</text>
</g>
<!-- NotSkipping.Processing&#45;&gt;NotSkippingV0.Processing -->
<g id="edge7" class="edge">
<title>NotSkipping.Processing&#45;&gt;NotSkippingV0.Processing</title>
<path fill="none" stroke="black" d="M573.96,-521.95C558.07,-516.64 540.84,-510.46 525.26,-504 460.22,-477.02 387.62,-439.36 343.97,-415.84"/>
<polygon fill="black" stroke="black" points="345.57,-412.72 335.11,-411.04 342.24,-418.88 345.57,-412.72"/>
<text text-anchor="middle" x="573.76" y="-462.8" font-family="Times,serif" font-size="14.00">vFormat=&#39;v0&#39;</text>
</g>
<!-- NotSkippingV1.Processing -->
<g id="node9" class="node">
<title>NotSkippingV1.Processing</title>
<path fill="lightblue" stroke="black" d="M758.26,-411C758.26,-411 494.26,-411 494.26,-411 488.26,-411 482.26,-405 482.26,-399 482.26,-399 482.26,-387 482.26,-387 482.26,-381 488.26,-375 494.26,-375 494.26,-375 758.26,-375 758.26,-375 764.26,-375 770.26,-381 770.26,-387 770.26,-387 770.26,-399 770.26,-399 770.26,-405 764.26,-411 758.26,-411"/>
<text text-anchor="middle" x="626.26" y="-389.2" font-family="Times,serif" font-size="16.00">NotSkippingV1</text>
</g>
<!-- NotSkipping.Processing&#45;&gt;NotSkippingV1.Processing -->
<g id="edge8" class="edge">
<title>NotSkipping.Processing&#45;&gt;NotSkippingV1.Processing</title>
<path fill="none" stroke="black" d="M628.91,-521.8C628.39,-496.94 627.44,-450.74 626.83,-421.23"/>
<polygon fill="black" stroke="black" points="630.32,-421.11 626.62,-411.18 623.33,-421.25 630.32,-421.11"/>
<text text-anchor="middle" x="676.76" y="-462.8" font-family="Times,serif" font-size="14.00">vFormat=&#39;v1&#39;</text>
</g>
<!-- NotSkippingV0.Processing&#45;&gt;NotSkipping.Idle -->
<g id="edge12" class="edge">
<title>NotSkippingV0.Processing&#45;&gt;NotSkipping.Idle</title>
<path fill="none" stroke="black" d="M304.26,-411.25C304.26,-455.74 304.26,-574.61 304.26,-628.62"/>
<polygon fill="black" stroke="black" points="300.76,-628.81 304.26,-638.81 307.76,-628.81 300.76,-628.81"/>
<text text-anchor="middle" x="385.76" y="-543.8" font-family="Times,serif" font-size="14.00">[Version.isPHD(value)]</text>
<text text-anchor="middle" x="385.76" y="-528.8" font-family="Times,serif" font-size="14.00">&#45;&gt; FILTER_ACCEPT</text>
</g>
<!-- NotSkippingV0.Processing&#45;&gt;SkippingPrefix.Idle -->
<g id="edge11" class="edge">
<title>NotSkippingV0.Processing&#45;&gt;SkippingPrefix.Idle</title>
<path fill="none" stroke="black" d="M448.41,-376.93C508.52,-369.95 565.63,-362.09 570.26,-357 622.9,-299.12 594.8,-196.31 577.11,-147.78"/>
<polygon fill="black" stroke="black" points="580.33,-146.4 573.53,-138.28 573.78,-148.87 580.33,-146.4"/>
<text text-anchor="middle" x="720.26" y="-297.8" font-family="Times,serif" font-size="14.00">[key.startsWith(&lt;ReplayPrefix&gt;)]</text>
<text text-anchor="middle" x="720.26" y="-282.8" font-family="Times,serif" font-size="14.00">/ prefix &lt;&#45; &lt;ReplayPrefix&gt;</text>
<text text-anchor="middle" x="720.26" y="-267.8" font-family="Times,serif" font-size="14.00">&#45;&gt; FILTER_SKIP</text>
</g>
<!-- NotSkippingCommon.Processing -->
<g id="node10" class="node">
<title>NotSkippingCommon.Processing</title>
<path fill="lightblue" stroke="black" d="M436.26,-304.5C436.26,-304.5 172.26,-304.5 172.26,-304.5 166.26,-304.5 160.26,-298.5 160.26,-292.5 160.26,-292.5 160.26,-280.5 160.26,-280.5 160.26,-274.5 166.26,-268.5 172.26,-268.5 172.26,-268.5 436.26,-268.5 436.26,-268.5 442.26,-268.5 448.26,-274.5 448.26,-280.5 448.26,-280.5 448.26,-292.5 448.26,-292.5 448.26,-298.5 442.26,-304.5 436.26,-304.5"/>
<text text-anchor="middle" x="304.26" y="-282.7" font-family="Times,serif" font-size="16.00">NotSkippingCommon</text>
</g>
<!-- NotSkippingV0.Processing&#45;&gt;NotSkippingCommon.Processing -->
<g id="edge13" class="edge">
<title>NotSkippingV0.Processing&#45;&gt;NotSkippingCommon.Processing</title>
<path fill="none" stroke="black" d="M304.26,-374.74C304.26,-358.48 304.26,-333.85 304.26,-314.9"/>
<polygon fill="black" stroke="black" points="307.76,-314.78 304.26,-304.78 300.76,-314.78 307.76,-314.78"/>
<text text-anchor="middle" x="435.26" y="-345.8" font-family="Times,serif" font-size="14.00">[not key.startsWith(&lt;ReplayPrefix&gt;)</text>
<text text-anchor="middle" x="435.26" y="-330.8" font-family="Times,serif" font-size="14.00">and not Version.isPHD(value)]</text>
</g>
<!-- NotSkippingV1.Processing&#45;&gt;NotSkippingCommon.Processing -->
<g id="edge14" class="edge">
<title>NotSkippingV1.Processing&#45;&gt;NotSkippingCommon.Processing</title>
<path fill="none" stroke="black" d="M616.43,-374.83C606.75,-359.62 590.48,-338.14 570.26,-327 549.98,-315.83 505.48,-307.38 458.57,-301.23"/>
<polygon fill="black" stroke="black" points="458.9,-297.74 448.53,-299.95 458.01,-304.69 458.9,-297.74"/>
<text text-anchor="middle" x="632.26" y="-338.3" font-family="Times,serif" font-size="14.00">[always]</text>
</g>
<!-- NotSkippingCommon.Processing&#45;&gt;END -->
<g id="edge15" class="edge">
<title>NotSkippingCommon.Processing&#45;&gt;END</title>
<path fill="none" stroke="black" d="M159.92,-279.56C109.8,-274.24 62.13,-264.33 46.26,-246 20.92,-216.72 30.42,-167.54 38.5,-140.42"/>
<polygon fill="black" stroke="black" points="41.94,-141.16 41.67,-130.57 35.27,-139.02 41.94,-141.16"/>
<text text-anchor="middle" x="152.76" y="-212.3" font-family="Times,serif" font-size="14.00">[isListableKey(key, value) and</text>
<text text-anchor="middle" x="152.76" y="-197.3" font-family="Times,serif" font-size="14.00">Keys == maxKeys]</text>
<text text-anchor="middle" x="152.76" y="-182.3" font-family="Times,serif" font-size="14.00">&#45;&gt; FILTER_END</text>
</g>
<!-- NotSkippingCommon.Processing&#45;&gt;NotSkipping.Idle -->
<g id="edge17" class="edge">
<title>NotSkippingCommon.Processing&#45;&gt;NotSkipping.Idle</title>
<path fill="none" stroke="black" d="M214.74,-304.54C146.51,-322.73 57.06,-358.99 13.26,-429 -49.27,-528.95 128.43,-602.49 233.32,-635.95"/>
<polygon fill="black" stroke="black" points="232.34,-639.31 242.93,-638.97 234.43,-632.63 232.34,-639.31"/>
<text text-anchor="middle" x="156.76" y="-492.8" font-family="Times,serif" font-size="14.00">[isListableKey(key, value) and</text>
<text text-anchor="middle" x="156.76" y="-477.8" font-family="Times,serif" font-size="14.00">nKeys &lt; maxKeys and</text>
<text text-anchor="middle" x="156.76" y="-462.8" font-family="Times,serif" font-size="14.00">not hasDelimiter(key)]</text>
<text text-anchor="middle" x="156.76" y="-447.8" font-family="Times,serif" font-size="14.00">/ Contents.append(key, versionId, value)</text>
<text text-anchor="middle" x="156.76" y="-432.8" font-family="Times,serif" font-size="14.00">&#45;&gt; FILTER_ACCEPT</text>
</g>
<!-- NotSkippingCommon.Processing&#45;&gt;SkippingPrefix.Idle -->
<g id="edge16" class="edge">
<title>NotSkippingCommon.Processing&#45;&gt;SkippingPrefix.Idle</title>
<path fill="none" stroke="black" d="M292.14,-268.23C288.18,-261.59 284.27,-253.75 282.26,-246 272.21,-207.28 255.76,-185.96 282.26,-156 293.6,-143.18 374.98,-134.02 447.74,-128.3"/>
<polygon fill="black" stroke="black" points="448.24,-131.77 457.94,-127.51 447.7,-124.79 448.24,-131.77"/>
<text text-anchor="middle" x="428.26" y="-234.8" font-family="Times,serif" font-size="14.00">[isListableKey(key, value) and</text>
<text text-anchor="middle" x="428.26" y="-219.8" font-family="Times,serif" font-size="14.00">nKeys &lt; maxKeys and</text>
<text text-anchor="middle" x="428.26" y="-204.8" font-family="Times,serif" font-size="14.00">hasDelimiter(key)]</text>
<text text-anchor="middle" x="428.26" y="-189.8" font-family="Times,serif" font-size="14.00">/ prefix &lt;&#45; prefixOf(key)</text>
<text text-anchor="middle" x="428.26" y="-174.8" font-family="Times,serif" font-size="14.00">/ CommonPrefixes.append(prefixOf(key))</text>
<text text-anchor="middle" x="428.26" y="-159.8" font-family="Times,serif" font-size="14.00">&#45;&gt; FILTER_ACCEPT</text>
</g>
<!-- SkippingPrefix.Processing&#45;&gt;SkippingPrefix.Idle -->
<g id="edge18" class="edge">
<title>SkippingPrefix.Processing&#45;&gt;SkippingPrefix.Idle</title>
<path fill="none" stroke="black" d="M681.57,-36.04C679.28,-50.54 673.9,-71.03 661.26,-84 656.4,-88.99 650.77,-93.28 644.72,-96.95"/>
<polygon fill="black" stroke="black" points="642.71,-94.06 635.6,-101.92 646.05,-100.21 642.71,-94.06"/>
<text text-anchor="middle" x="759.26" y="-72.8" font-family="Times,serif" font-size="14.00">[key.startsWith(prefix)]</text>
<text text-anchor="middle" x="759.26" y="-57.8" font-family="Times,serif" font-size="14.00">&#45;&gt; FILTER_SKIP</text>
</g>
<!-- SkippingPrefix.Processing&#45;&gt;NotSkipping.Processing -->
<g id="edge19" class="edge">
<title>SkippingPrefix.Processing&#45;&gt;NotSkipping.Processing</title>
<path fill="none" stroke="black" d="M791.46,-33.51C815.84,-38.71 837.21,-45.46 846.26,-54 868.07,-74.57 864.26,-89.02 864.26,-119 864.26,-394 864.26,-394 864.26,-394 864.26,-462.4 791.27,-499.6 726.64,-519.12"/>
<polygon fill="black" stroke="black" points="725.39,-515.84 716.77,-521.99 727.35,-522.56 725.39,-515.84"/>
<text text-anchor="middle" x="961.26" y="-282.8" font-family="Times,serif" font-size="14.00">[not key.startsWith(prefix)]</text>
</g>
<!-- WaitForNullKey.Processing&#45;&gt;NotSkipping.Processing -->
<g id="edge9" class="edge">
<title>WaitForNullKey.Processing&#45;&gt;NotSkipping.Processing</title>
<path fill="none" stroke="black" d="M599.08,-725.78C604.81,-690.67 617.89,-610.59 624.8,-568.31"/>
<polygon fill="black" stroke="black" points="628.3,-568.61 626.46,-558.18 621.39,-567.48 628.3,-568.61"/>
<text text-anchor="middle" x="707.26" y="-653.3" font-family="Times,serif" font-size="14.00">master(key) != keyMarker</text>
</g>
<!-- WaitForNullKey.Processing&#45;&gt;SkippingVersions.Processing -->
<g id="edge10" class="edge">
<title>WaitForNullKey.Processing&#45;&gt;SkippingVersions.Processing</title>
<path fill="none" stroke="black" d="M704.4,-726.26C797.32,-711.87 931.09,-691.16 1026.87,-676.33"/>
<polygon fill="black" stroke="black" points="1027.55,-679.77 1036.89,-674.78 1026.47,-672.85 1027.55,-679.77"/>
<text text-anchor="middle" x="1001.26" y="-696.8" font-family="Times,serif" font-size="14.00">master(key) == keyMarker</text>
</g>
<!-- SkippingVersions.Processing&#45;&gt;SkippingVersions.Idle -->
<g id="edge21" class="edge">
<title>SkippingVersions.Processing&#45;&gt;SkippingVersions.Idle</title>
<path fill="none" stroke="black" d="M1241.89,-638.98C1249.74,-634.29 1256.75,-628.4 1262.26,-621 1274.21,-604.96 1274.21,-592.04 1262.26,-576 1258.82,-571.38 1254.79,-567.34 1250.33,-563.82"/>
<polygon fill="black" stroke="black" points="1252.11,-560.8 1241.89,-558.02 1248.15,-566.57 1252.11,-560.8"/>
<text text-anchor="middle" x="1392.26" y="-609.8" font-family="Times,serif" font-size="14.00">master(key) === keyMarker and </text>
<text text-anchor="middle" x="1392.26" y="-594.8" font-family="Times,serif" font-size="14.00">versionId &lt; versionIdMarker</text>
<text text-anchor="middle" x="1392.26" y="-579.8" font-family="Times,serif" font-size="14.00">&#45;&gt; FILTER_SKIP</text>
</g>
<!-- SkippingVersions.Processing&#45;&gt;SkippingVersions.Idle -->
<g id="edge22" class="edge">
<title>SkippingVersions.Processing&#45;&gt;SkippingVersions.Idle</title>
<path fill="none" stroke="black" d="M1036.97,-654.38C978.97,-650.96 915.73,-642.25 897.26,-621 884.15,-605.9 884.15,-591.1 897.26,-576 914.65,-555.99 971.71,-547.1 1026.73,-543.28"/>
<polygon fill="black" stroke="black" points="1027.21,-546.76 1036.97,-542.62 1026.76,-539.77 1027.21,-546.76"/>
<text text-anchor="middle" x="1019.26" y="-609.8" font-family="Times,serif" font-size="14.00">master(key) === keyMarker and </text>
<text text-anchor="middle" x="1019.26" y="-594.8" font-family="Times,serif" font-size="14.00">versionId == versionIdMarker</text>
<text text-anchor="middle" x="1019.26" y="-579.8" font-family="Times,serif" font-size="14.00">&#45;&gt; FILTER_ACCEPT</text>
</g>
<!-- SkippingVersions.Processing&#45;&gt;NotSkipping.Processing -->
<g id="edge20" class="edge">
<title>SkippingVersions.Processing&#45;&gt;NotSkipping.Processing</title>
<path fill="none" stroke="black" d="M1037.02,-651.24C897.84,-644.67 672.13,-632.37 657.26,-621 641.04,-608.6 634.18,-586.13 631.3,-568.16"/>
<polygon fill="black" stroke="black" points="634.76,-567.68 630.02,-558.21 627.82,-568.57 634.76,-567.68"/>
<text text-anchor="middle" x="770.26" y="-602.3" font-family="Times,serif" font-size="14.00">master(key) !== keyMarker or </text>
<text text-anchor="middle" x="770.26" y="-587.3" font-family="Times,serif" font-size="14.00">versionId &gt; versionIdMarker</text>
</g>
</g>
</svg>
